<?xml version="1.0" standalone="no"?>
<!DOCTYPE svg PUBLIC "-//W3C//DTD SVG 20010904//EN"
 "http://www.w3.org/TR/2001/REC-SVG-20010904/DTD/svg10.dtd">
<svg version="1.0" xmlns="http://www.w3.org/2000/svg"
 width="500.000000pt" height="500.000000pt" viewBox="0 0 500.000000 500.000000"
 preserveAspectRatio="xMidYMid meet">
<metadata>
Created by potrace 1.14, written by Peter Selinger 2001-2017
</metadata>
<g transform="translate(0.000000,500.000000) scale(0.100000,-0.100000)"
fill="#000000" stroke="none">
<path d="M2806 4234 c-33 -13 -62 -28 -65 -33 -4 -4 -25 -10 -48 -13 -22 -3
-85 -27 -138 -52 -108 -51 -113 -52 -95 -31 19 23 -9 29 -98 21 -187 -17 -372
-118 -432 -237 -21 -41 -28 -98 -16 -136 25 -78 -154 -44 -414 78 -179 84
-204 81 -250 -29 -28 -65 -51 -82 -115 -83 -47 -1 -48 -2 -20 -11 21 -6 42 -5
70 4 35 11 44 21 70 74 57 115 62 116 225 39 215 -101 402 -149 437 -114 7 7
9 33 6 68 -6 59 4 90 48 153 l19 26 29 -28 c42 -42 70 -46 127 -17 108 55 124
114 39 142 -33 11 51 42 149 55 120 16 132 11 65 -27 -31 -17 -71 -50 -88 -72
-18 -22 -75 -77 -127 -121 -154 -132 -154 -163 3 -137 54 9 101 13 106 8 5 -5
-2 -21 -15 -35 -32 -38 -119 -46 -228 -21 -43 10 -85 15 -93 12 -20 -8 -31
-82 -20 -127 6 -21 19 -40 34 -47 13 -7 19 -13 14 -13 -6 0 -54 -25 -107 -55
-53 -30 -103 -55 -112 -55 -9 0 -25 -9 -35 -19 -11 -11 -40 -23 -65 -26 -51
-8 -74 -26 -54 -43 7 -5 50 -20 95 -32 180 -48 331 -186 437 -397 57 -113 80
-205 81 -313 0 -101 -9 -155 -25 -145 -6 3 -10 41 -10 83 -1 283 -206 600
-478 735 -75 37 -92 41 -173 45 -95 5 -140 -6 -163 -40 -7 -10 -37 -31 -67
-46 -131 -66 -168 -224 -109 -460 71 -278 373 -614 567 -628 l48 -3 -44 9
c-105 23 -222 100 -323 215 -64 73 -111 135 -106 140 3 3 20 -16 38 -42 162
-225 383 -342 551 -292 96 29 169 141 169 260 0 190 -134 463 -316 644 -122
122 -241 184 -354 185 l-54 0 22 22 c34 34 157 38 246 8 201 -66 422 -307 500
-542 21 -63 36 -160 36 -233 0 -95 23 -112 49 -36 32 96 2 281 -69 430 -105
219 -260 360 -458 415 -41 12 -73 26 -73 31 1 6 34 11 74 13 69 3 78 0 157
-39 69 -35 102 -60 185 -143 103 -104 149 -170 192 -276 43 -108 56 -192 48
-322 -6 -108 -5 -118 11 -118 10 0 -4 -14 -32 -31 -27 -17 -103 -84 -169 -148
-122 -119 -129 -123 -230 -145 -11 -2 -4 -4 15 -5 62 -2 128 40 230 144 52 53
133 123 180 155 68 46 336 253 571 442 l36 29 177 -17 c167 -15 259 -13 271 6
3 4 13 6 23 3 25 -6 124 85 151 139 23 48 15 78 -23 78 -29 0 -57 -31 -95
-107 -17 -35 -34 -63 -37 -63 -3 0 -3 3 0 8 6 10 33 293 42 437 4 62 13 122
21 138 17 34 69 67 105 67 40 0 43 -25 24 -214 -28 -285 -18 -354 32 -217 26
74 48 242 57 436 8 162 -2 212 -48 251 -16 14 -28 26 -26 28 2 1 29 13 60 25
30 12 84 40 120 61 35 22 75 40 90 40 25 0 74 -29 158 -94 64 -48 168 -74 186
-46 4 6 -5 7 -23 4 -46 -9 -106 13 -172 64 -132 101 -146 103 -256 37 -229
-139 -514 -148 -514 -16 0 30 17 34 53 13 68 -42 187 -51 233 -17 15 11 15 14
-7 33 -13 12 -46 30 -74 38 -42 14 -53 23 -70 58 -32 67 -104 103 -211 108
-43 2 -50 5 -50 23 1 24 -41 33 -74 15 -16 -8 -25 -8 -35 0 -8 7 -28 9 -52 4
-31 -5 -36 -4 -25 7 35 37 -18 39 -102 3z m94 10 c0 -3 -20 -14 -44 -25 -25
-10 -46 -24 -48 -29 -2 -6 -14 -6 -33 -1 -16 5 -28 10 -25 10 3 1 32 12 65 26
59 24 85 30 85 19z m185 -39 c0 -5 -22 -20 -50 -33 -47 -23 -53 -23 -127 -12
-43 7 -78 15 -78 19 0 13 66 31 109 31 l43 0 -23 -20 c-35 -29 -3 -25 46 5 39
25 80 30 80 10z m-270 -50 c109 -30 149 -31 217 -5 103 39 231 19 288 -46 28
-32 38 -54 24 -54 -3 0 -26 14 -50 31 -75 51 -204 97 -204 72 0 -4 12 -20 28
-36 l27 -28 -28 10 c-75 29 -151 4 -306 -98 -51 -34 -104 -64 -117 -67 -41
-10 -247 21 -316 48 -41 15 -34 33 25 67 59 34 57 42 -3 11 -22 -11 -40 -18
-40 -15 0 9 81 46 89 40 5 -3 58 17 118 44 59 28 119 50 133 50 14 1 65 -10
115 -24z m112 -11 c-3 -3 -12 -4 -19 -1 -8 3 -5 6 6 6 11 1 17 -2 13 -5z m298
-39 c39 -19 81 -44 95 -55 l25 -20 -46 0 c-48 0 -98 27 -169 90 l-35 32 30 -7
c17 -3 62 -21 100 -40z m-95 -27 c89 -45 67 -57 -200 -108 -165 -31 -210 -47
-210 -75 0 -14 -4 -14 -27 -2 -16 8 -71 19 -124 25 -54 7 -108 17 -120 22
l-24 11 25 -6 c68 -13 229 -27 253 -21 15 3 64 32 109 63 105 71 193 113 238
113 20 0 56 -10 80 -22z m189 -58 c53 0 84 -6 126 -24 59 -26 68 -41 34 -51
-50 -16 -135 -7 -188 20 -64 32 -81 28 -81 -20 0 -85 134 -127 285 -89 19 5
21 2 17 -25 -2 -17 3 -51 12 -77 30 -90 21 -106 -66 -118 l-47 -7 -13 43 c-17
58 -84 123 -161 158 -74 33 -194 63 -233 58 -24 -3 -29 -9 -37 -43 -9 -43 -1
-118 15 -150 8 -15 4 -13 -16 6 -14 15 -57 43 -95 63 -69 36 -141 103 -141
131 0 22 33 32 210 66 200 38 228 46 242 69 11 17 14 17 39 4 17 -8 57 -14 98
-14z m-1095 -2 c13 -22 -29 -69 -90 -98 -45 -22 -65 -19 -101 13 -28 25 -29
35 -5 54 63 51 172 68 196 31z m121 -28 c14 -16 15 -19 4 -15 -31 12 -39 -18
-18 -65 18 -39 19 -52 10 -98 -6 -29 -19 -72 -29 -96 -19 -42 -20 -43 -176
-105 -125 -49 -161 -60 -172 -50 -19 16 -20 137 0 145 7 3 41 -2 74 -10 74
-20 172 -21 215 -3 38 16 67 61 50 78 -8 8 -38 7 -109 -5 -137 -24 -141 -14
-34 83 66 60 158 149 166 160 0 0 9 -8 19 -19z m29 -32 c-8 -12 95 -38 205
-53 115 -15 149 -34 136 -74 -9 -28 -48 -27 -150 4 -87 27 -167 32 -182 13 -6
-7 -15 -26 -21 -43 -9 -26 -9 -23 -5 22 4 39 1 59 -11 77 -24 37 -21 61 8 61
13 0 22 -3 20 -7z m694 -104 c26 -17 28 -27 6 -48 -26 -27 -42 -17 -62 39 -6
18 -11 23 -11 12 -1 -28 28 -77 46 -77 39 0 67 52 41 78 -15 15 -12 15 53 -4
137 -41 249 -131 249 -199 0 -15 -16 -16 -167 -10 -93 4 -178 12 -191 16 -13
5 -29 25 -37 44 -15 34 -21 156 -9 168 9 9 53 -2 82 -19z m528 -28 c38 -38 38
-39 35 -206 -4 -216 -33 -427 -67 -490 -13 -24 -13 -23 -13 20 -1 25 6 104 14
175 19 171 19 249 0 265 -19 16 -77 7 -109 -17 -39 -29 -54 -63 -60 -143 -3
-41 -11 -136 -16 -210 -11 -141 -28 -283 -36 -311 -6 -23 -60 -29 -173 -22
-92 6 -95 7 -64 20 18 7 39 24 48 37 22 33 37 216 34 421 -1 94 -1 175 0 182
2 20 34 23 91 8 103 -28 130 -19 130 40 0 20 6 23 52 29 79 11 91 20 86 69 -3
23 -11 63 -18 89 -11 38 -11 49 -1 62 19 23 29 20 67 -18z m-1039 0 c43 -13
90 -27 104 -30 29 -6 69 17 69 41 0 11 12 5 39 -20 21 -19 71 -52 111 -73 117
-61 143 -122 160 -373 8 -135 2 -334 -14 -401 -7 -28 0 -41 29 -59 16 -9 3
-11 -70 -6 l-90 6 -59 -44 c-56 -42 -99 -60 -75 -30 6 7 15 10 20 8 4 -3 13 4
19 15 6 11 28 29 49 39 51 26 102 85 136 157 56 117 42 278 -37 435 -97 194
-269 280 -473 234 -53 -11 -75 -21 -72 -29 5 -13 -56 -39 -67 -29 -5 6 43 154
57 171 15 19 78 14 164 -12z m-221 -112 c-8 -25 -13 -50 -10 -55 3 -5 -9 -9
-27 -9 l-32 0 26 21 c15 11 32 38 38 60 7 21 14 37 17 35 2 -3 -3 -26 -12 -52z
m411 -29 c154 -75 256 -259 257 -465 1 -89 -1 -100 -32 -163 -36 -72 -77 -120
-131 -151 l-33 -18 8 43 c18 92 7 199 -31 305 -20 54 -41 105 -49 114 -7 8
-24 35 -39 60 -49 86 -120 154 -196 189 -39 18 -93 36 -119 40 l-47 7 51 17
51 18 99 -42 c207 -87 244 -95 244 -51 0 56 -160 118 -287 111 -72 -5 -71 5 2
20 85 17 171 5 252 -34z m-122 -10 c80 -21 140 -55 140 -80 0 -11 -7 -21 -16
-23 -13 -2 -272 100 -288 114 -12 11 113 2 164 -11z m560 -39 c77 -4 157 -9
178 -13 37 -6 39 -7 33 -36 -3 -17 -9 -33 -11 -36 -3 -3 -34 1 -68 9 -105 22
-113 23 -130 5 -12 -12 -17 -34 -17 -80 0 -58 -2 -63 -24 -69 -13 -3 -26 -13
-30 -21 -7 -19 31 -58 50 -51 17 7 17 2 4 -206 -6 -86 -14 -168 -19 -181 -12
-30 -57 -48 -90 -36 -23 9 -23 11 -15 92 13 119 9 410 -5 497 -7 41 -21 94
-31 116 l-18 41 27 -12 c14 -7 89 -16 166 -19z m-899 -11 c-11 -8 -24 -15 -29
-15 -4 0 -5 -4 -2 -10 4 -6 -1 -7 -11 -3 -12 4 -15 3 -10 -5 4 -8 2 -10 -7 -6
-8 3 -56 -15 -106 -40 -106 -54 -147 -61 -51 -10 36 19 54 32 40 29 -19 -5
-22 -4 -10 4 8 6 22 8 31 6 9 -3 49 10 90 29 82 39 94 43 65 21z m123 -7 c23
0 23 0 -5 -19 -34 -22 -58 -25 -30 -4 34 26 12 17 -137 -56 -80 -39 -154 -69
-164 -67 -11 3 34 30 119 73 77 39 132 72 126 76 -6 4 6 5 28 2 21 -3 50 -5
63 -5z m69 -30 c-6 -18 -277 -157 -305 -158 -39 0 -25 15 55 60 107 60 138 80
128 80 -16 0 -180 -92 -206 -116 -23 -20 -27 -21 -50 -9 -14 8 -19 14 -12 15
7 0 69 27 138 60 70 33 130 57 135 54 5 -3 21 2 36 10 35 19 86 21 81 4z m56
-16 c3 -5 -25 -23 -62 -41 -127 -61 -251 -134 -254 -147 -2 -10 -12 -8 -37 8
l-35 22 37 8 c37 8 172 73 262 127 50 30 80 38 89 23z m-507 -43 c-25 -13 -37
-25 -33 -35 4 -10 -3 -14 -29 -14 -19 0 -35 2 -35 5 0 6 112 64 125 64 6 0 -7
-9 -28 -20z m533 11 c18 -11 27 -5 -120 -90 -143 -83 -165 -93 -191 -85 -40
13 -23 25 194 139 97 50 96 50 117 36z m-475 -35 c-11 -8 -25 -19 -32 -25 -14
-12 -33 -13 -33 -2 0 4 17 14 38 24 47 20 52 21 27 3z m523 3 c16 -16 15 -28
0 -28 -26 -1 -283 -156 -294 -177 -10 -22 -11 -22 -48 16 l-37 38 28 -4 c27
-4 164 65 278 140 46 30 56 32 73 15z m-517 -76 c132 -65 245 -183 313 -326
53 -111 60 -146 60 -316 1 -135 -1 -160 -17 -184 -26 -39 -30 -28 -12 40 85
327 -190 777 -490 802 -85 6 -66 24 21 20 44 -3 79 -13 125 -36z m553 23 c0
-12 -249 -163 -282 -172 -26 -6 -45 6 -34 23 4 7 68 46 142 88 123 70 176 88
174 61z m-683 -20 c144 -18 310 -160 398 -342 71 -144 96 -348 58 -467 -9 -27
-14 -53 -11 -58 7 -11 41 9 54 31 20 39 30 157 20 262 -10 117 -30 187 -88
302 -2 4 6 7 18 7 12 0 87 39 167 87 138 83 146 86 159 68 19 -26 18 -35 -6
-35 -25 0 -247 -133 -278 -167 -18 -20 -20 -28 -11 -39 6 -8 21 -14 33 -14 23
0 195 101 258 150 30 24 37 27 42 14 9 -25 7 -44 -6 -44 -15 0 -226 -136 -260
-168 -31 -29 -36 -57 -12 -66 21 -8 39 2 176 101 65 46 122 81 128 78 17 -10
11 -42 -8 -47 -24 -7 -253 -160 -271 -182 -12 -15 -12 -19 1 -32 20 -20 29
-15 168 84 113 80 130 90 130 73 0 -13 -4 -16 -147 -116 -120 -84 -168 -129
-157 -146 9 -16 29 -10 72 22 66 48 61 27 -5 -24 -75 -57 -87 -72 -78 -94 5
-10 7 -22 6 -27 -1 -5 3 -12 8 -16 6 -3 -37 -43 -95 -88 -59 -46 -108 -81
-110 -79 -2 2 9 28 25 58 42 76 57 167 42 255 -33 194 -91 313 -206 430 -102
103 -208 166 -355 211 -26 8 31 32 65 27 16 -2 51 -6 76 -9z m719 -14 c13 -26
13 -31 -5 -31 -18 0 -264 -154 -285 -179 -14 -16 -18 -15 -48 26 -31 41 -31
42 -8 33 21 -7 45 3 163 72 76 44 142 84 148 89 14 14 23 11 35 -10z m-788
-41 c184 -69 360 -237 422 -401 67 -180 73 -337 18 -446 -18 -35 -34 -63 -37
-63 -2 0 -1 55 2 123 5 104 3 134 -16 207 -41 165 -119 289 -265 420 -93 84
-157 123 -237 143 l-53 14 29 16 c33 18 62 15 137 -13z m1282 12 c9 -14 -12
-35 -28 -29 -23 9 -20 37 3 37 11 0 22 -4 25 -8z m-480 -18 c9 -3 16 -10 16
-15 0 -4 -65 -47 -145 -95 -96 -58 -150 -84 -162 -80 -15 6 -15 8 -1 22 17 17
259 173 270 174 3 0 13 -3 22 -6z m61 -103 c8 -14 -20 -38 -110 -97 -134 -86
-195 -112 -195 -81 0 20 23 38 150 116 112 69 143 81 155 62z m-1223 -51 c296
-91 628 -635 543 -890 -24 -71 -94 -144 -155 -160 -75 -20 -155 -9 -245 34
-141 68 -320 271 -406 463 -106 232 -85 445 50 521 35 20 39 21 45 5 5 -11 -4
-25 -27 -44 -19 -16 -45 -52 -58 -81 -20 -45 -24 -69 -24 -153 0 -121 19 -195
80 -321 73 -150 243 -311 390 -367 97 -37 237 -15 293 46 43 49 52 131 28 259
-33 168 -110 318 -230 446 -133 140 -299 241 -401 243 -40 1 -45 3 -25 9 41
13 75 11 142 -10z m-197 -7 c-49 -26 -96 -75 -121 -128 -13 -27 -24 -44 -24
-37 0 23 41 99 68 125 28 27 80 57 97 57 6 -1 -3 -8 -20 -17z m169 -24 c126
-47 296 -186 383 -314 83 -123 135 -252 153 -384 21 -149 -11 -223 -111 -256
-112 -38 -228 -4 -374 108 -90 69 -155 150 -211 262 -58 117 -78 198 -78 310
0 104 25 178 77 221 l31 26 8 -22 c5 -13 7 -24 6 -24 -2 -1 -15 -7 -30 -14
-114 -49 -63 -295 119 -569 113 -172 230 -260 359 -271 74 -6 121 9 160 49 27
28 29 36 29 102 -1 43 -8 94 -19 127 -56 166 -185 371 -316 500 -102 102 -171
140 -253 140 -40 0 -56 4 -61 15 -8 23 61 20 128 -6z m1286 -22 c0 -17 -255
-197 -280 -197 -23 0 -25 10 -7 32 17 23 256 178 273 178 8 0 14 -6 14 -13z
m-1253 -23 c201 -100 471 -511 476 -726 2 -61 0 -69 -27 -97 -59 -62 -161 -66
-272 -11 -107 52 -228 203 -324 403 -56 116 -80 197 -80 275 0 46 4 58 29 83
39 39 56 37 74 -8 14 -36 14 -39 -9 -60 -21 -19 -24 -31 -24 -90 0 -203 137
-436 305 -520 103 -52 246 -78 273 -51 18 18 15 77 -7 139 -10 30 -65 148
-122 263 -73 147 -116 220 -144 249 -47 47 -165 106 -227 114 -42 5 -68 24
-68 50 0 23 90 16 147 -13z m26 -83 c115 -55 132 -76 254 -323 145 -290 168
-362 122 -391 -24 -15 -160 14 -235 49 -84 39 -191 148 -238 243 -70 138 -97
304 -57 352 l20 24 16 -38 c46 -111 52 -132 43 -156 -19 -52 41 -243 97 -309
36 -42 124 -87 190 -97 33 -6 45 -3 69 16 44 35 34 90 -48 252 -126 249 -194
324 -306 335 -28 2 -50 6 -50 7 0 1 -7 20 -16 40 l-15 38 46 -6 c26 -4 75 -20
108 -36z m1957 19 c0 -12 -6 -33 -14 -48 -18 -36 -128 -140 -133 -126 -5 14
75 165 95 182 25 19 52 15 52 -8z m-710 -12 c-1 -18 -245 -188 -270 -188 -16
0 -19 4 -12 16 9 15 259 183 275 184 4 0 7 -6 7 -12z m-1255 -82 c28 -13 60
-34 71 -47 59 -66 202 -326 224 -408 24 -91 -12 -123 -109 -95 -83 23 -143 66
-173 122 -36 66 -68 176 -67 231 l0 46 20 -44 c13 -29 16 -48 10 -54 -13 -13
7 -61 50 -123 44 -64 65 -84 90 -84 27 0 57 68 65 147 5 50 3 63 -18 93 -13
19 -48 50 -78 68 -45 27 -63 33 -96 29 l-40 -4 -22 56 c-12 31 -24 64 -28 74
-9 25 39 22 101 -7z m1253 -11 c-3 -16 -268 -209 -275 -201 -12 11 21 41 137
125 69 50 129 91 133 91 5 0 7 -7 5 -15z m-15 -52 c-7 -2 -10 -10 -7 -18 5
-13 -247 -225 -268 -225 -21 0 13 33 120 115 62 48 111 89 108 92 -3 3 -26
-12 -51 -32 -25 -21 -48 -36 -51 -33 -2 3 30 31 73 61 42 31 79 54 82 50 4 -3
1 -8 -6 -10z m-1148 -101 c63 -44 87 -87 79 -141 -11 -75 -28 -123 -47 -135
-16 -9 -23 -5 -48 24 -37 43 -89 133 -88 151 0 8 10 -6 22 -31 18 -37 28 -46
53 -48 34 -3 60 18 51 42 -7 16 -78 56 -100 56 -19 0 -58 102 -43 113 19 14
79 -2 121 -31z m1055 -43 c-54 -47 -170 -138 -153 -119 18 20 187 159 193 159
3 0 -15 -18 -40 -40z m-1101 -59 c5 0 20 -9 35 -21 21 -17 24 -24 15 -35 -19
-24 -48 -16 -69 19 -24 39 -25 51 -4 43 9 -3 19 -6 23 -6z m-268 -194 c5 -6 9
-15 9 -20 -1 -27 -89 128 -104 184 -4 14 14 -15 39 -65 25 -49 50 -94 56 -99z"/>
<path d="M2755 2900 c-3 -5 -2 -10 4 -10 5 0 13 5 16 10 3 6 2 10 -4 10 -5 0
-13 -4 -16 -10z"/>
<path d="M3868 3628 c-14 -38 -9 -38 469 -38 l464 0 -3 23 -3 22 -461 3 c-364
2 -463 0 -466 -10z"/>
<path d="M194 3605 c-19 -15 -19 -15 0 -30 17 -13 119 -15 780 -15 419 0 771
3 784 6 29 8 29 40 -1 48 -12 3 -364 6 -783 6 -661 0 -763 -2 -780 -15z"/>
<path d="M1481 2034 c-29 -37 -54 -110 -92 -264 -34 -140 -58 -188 -142 -277
-57 -61 -99 -33 -82 53 10 56 45 101 45 59 0 -8 5 -15 11 -15 6 0 9 12 7 28
-2 19 -9 27 -22 27 -32 0 -59 -49 -64 -114 -4 -50 -1 -62 17 -80 35 -35 86 -8
152 83 16 21 29 36 29 33 0 -3 -9 -45 -20 -92 -34 -147 -22 -182 24 -67 29 72
75 146 91 145 6 0 13 -16 16 -34 3 -19 9 -40 13 -47 13 -22 47 -13 82 22 30
30 34 31 39 15 9 -28 22 -24 65 24 l40 42 0 -30 c0 -40 25 -75 55 -75 24 0 64
40 91 91 9 18 23 29 35 29 11 0 29 5 41 11 11 6 21 9 23 7 2 -2 -5 -37 -15
-78 -47 -181 3 -215 99 -68 23 35 41 61 41 58 0 -3 -11 -61 -25 -130 -28 -142
-31 -194 -12 -188 7 3 13 24 14 49 5 107 107 537 142 598 43 74 64 128 65 168
1 27 -3 38 -13 38 -25 0 -62 -93 -106 -264 -43 -172 -75 -248 -141 -338 -55
-74 -68 -77 -60 -13 4 28 16 79 26 113 32 101 27 113 -32 77 -18 -11 -36 -20
-40 -20 -4 0 4 24 17 53 30 63 32 87 7 87 -40 0 -87 -76 -78 -125 5 -26 0 -42
-26 -81 -18 -27 -41 -50 -50 -52 -21 -4 -38 33 -38 82 0 51 -12 51 -57 -1 -45
-50 -55 -44 -29 19 21 50 41 64 72 49 22 -10 25 -9 22 5 -5 25 -42 35 -66 18
-12 -8 -45 -48 -73 -90 -73 -104 -108 -119 -109 -43 0 31 -23 54 -44 46 -9 -4
-29 -25 -46 -48 -16 -23 -30 -39 -30 -35 0 4 13 65 29 134 21 90 45 158 81
235 52 108 71 179 52 191 -6 3 -20 -5 -31 -20z m-7 -85 c-9 -24 -21 -48 -26
-54 -5 -5 0 15 11 45 12 30 21 57 21 59 0 2 2 2 5 -1 3 -3 -2 -25 -11 -49z
m730 2 c-9 -23 -18 -40 -21 -38 -2 3 4 23 13 46 9 23 18 40 21 38 2 -3 -4 -23
-13 -46z m-330 -277 c-13 -29 -18 -34 -21 -21 -5 18 24 73 33 64 3 -3 -3 -22
-12 -43z"/>
<path d="M3495 1978 c-2 -7 -11 -38 -20 -70 l-16 -56 -114 -7 c-63 -4 -115
-11 -115 -16 0 -5 50 -9 110 -9 61 0 110 -4 110 -9 0 -5 -10 -51 -21 -103 -21
-90 -48 -148 -83 -177 -20 -17 -26 -11 -46 41 -20 55 -42 68 -70 43 l-22 -20
7 38 c11 55 -10 46 -30 -12 -19 -59 -69 -131 -90 -131 -19 0 -35 40 -35 85 0
51 -14 50 -56 -1 -21 -25 -40 -41 -42 -35 -6 18 17 77 38 96 17 15 24 16 46 6
22 -10 25 -9 22 5 -2 9 -13 20 -25 25 -28 10 -61 -15 -105 -79 -49 -71 -108
-132 -129 -132 -27 0 -42 35 -34 81 7 43 44 98 45 67 0 -10 4 -18 9 -18 16 0
20 28 7 45 -30 41 -86 -41 -86 -125 0 -44 31 -86 57 -76 8 3 19 6 24 6 5 0 29
21 53 46 41 42 45 44 51 25 9 -30 21 -26 65 22 l40 42 0 -30 c0 -66 52 -95 95
-55 l22 20 -5 -30 c-8 -52 14 -33 51 45 38 79 60 94 72 48 10 -42 33 -73 55
-73 10 0 29 10 41 23 l22 22 -6 -25 c-10 -45 -65 -334 -70 -372 -3 -21 -1 -40
4 -44 16 -10 21 1 25 58 5 91 119 633 137 656 8 10 57 13 211 12 239 -1 225
-2 206 10 -8 5 -102 10 -212 10 -152 0 -198 3 -198 13 0 6 7 37 15 67 18 66
17 60 5 60 -6 0 -13 -6 -15 -12z"/>
<path d="M2205 1694 c-47 -51 -76 -192 -46 -227 28 -34 69 -21 132 42 l58 59
37 -66 c21 -36 37 -71 37 -77 0 -5 -17 -37 -37 -69 -52 -85 -46 -138 10 -101
32 21 67 98 62 135 -4 24 9 44 74 122 43 51 78 96 78 100 0 21 -24 1 -90 -77
-40 -47 -75 -83 -79 -80 -4 2 -22 33 -40 69 -34 66 -35 91 -5 121 9 8 29 15
45 15 33 0 39 16 9 25 -31 10 -73 -17 -98 -63 -37 -67 -127 -154 -154 -150
-20 3 -23 10 -26 55 -3 46 0 55 23 75 32 28 65 79 65 102 0 24 -28 19 -55 -10z
m211 -383 c-9 -16 -21 -33 -27 -36 -22 -14 -20 6 8 56 22 41 29 48 31 32 2
-12 -4 -35 -12 -52z"/>
<path d="M3506 1693 c-11 -11 -6 -23 9 -23 8 0 15 4 15 9 0 13 -16 22 -24 14z"/>
<path d="M3641 1634 c-16 -44 -100 -134 -126 -134 -16 0 -17 7 -12 61 6 74
-13 78 -27 5 -12 -66 4 -101 42 -91 15 3 45 23 66 43 21 20 36 29 33 20 -3 -9
-9 -33 -13 -52 -11 -59 12 -42 51 39 20 41 41 75 48 75 7 0 23 -22 34 -50 18
-41 26 -50 47 -50 24 0 57 34 85 87 21 41 -5 32 -39 -14 -19 -26 -40 -48 -46
-50 -6 -2 -20 19 -32 47 -27 64 -48 73 -79 34 l-23 -29 10 35 c19 67 4 87 -19
24z"/>
<path d="M190 885 c-6 -8 -9 -19 -5 -25 4 -7 721 -10 2311 -10 l2305 0 -3 23
-3 22 -2296 3 c-2002 2 -2298 0 -2309 -13z"/>
</g>
</svg>
